#!OML:ASF I:\golf\golf\golf 2\Subject 1\2002-09-07\Subject1.ASF
:FULLY-SPECIFIED
:DEGREES
320
root 0.664983 17.2308 -2.35107 35.0742 11.2742 1.12213
lowerback 31.8044 4.98515 1.13856
upperback 13.5453 6.9972 7.22352
thorax -2.69758 3.21372 5.08838
lowerneck -17.69 -6.08366 -4.00556
upperneck 14.2308 -6.32357 -4.88382
head 7.24626 -3.68702 -1.66585
rclavicle -3.18055e-015 1.43125e-014
rhumerus 25.5204 27.3435 -50.4897
rradius 36.743
rwrist -16.4633
rhand -19.0552 10.8862
rfingers 7.12502
rthumb 7.25189 -18.9696
lclavicle -3.18055e-015 1.43125e-014
lhumerus -11.6277 -47.12 91.0907
lradius 73.3878
lwrist 5.92955
lhand -29.1231 17.6604
lfingers 7.12502
lthumb -2.47059 47.6259
rfemur -62.8737 -14.6218 24.9262
rtibia 50.6174
rfoot -16.2237 -8.8202
rtoes -2.7479
lfemur -67.2811 3.07879 -22.5805
ltibia 37.6846
lfoot -3.56637 -19.1152
ltoes -7.69151
321
root 0.622973 17.2494 -2.36633 34.4585 11.4223 1.0077
lowerback 31.5482 4.9122 1.46607
upperback 13.0862 6.99626 6.89588
thorax -3.03581 3.24104 4.52232
lowerneck -17.5306 -6.03782 -3.31523
upperneck 14.9278 -6.42654 -4.82246
head 7.42259 -3.69803 -1.77728
rclavicle -9.54166e-015 1.82882e-014
rhumerus 23.51 27.784 -52.2017
rradius 37.1707
rwrist -16.2565
rhand -19.1405 10.961
rfingers 7.12502
rthumb 7.16952 -18.8975
lclavicle -9.54166e-015 1.82882e-014
lhumerus -12.1697 -47.6794 91.1871
lradius 72.7069
lwrist 6.66851
lhand -27.5463 18.8979
lfingers 7.12502
lthumb -0.947682 48.8755
rfemur -62.0247 -14.4014 24.9264
rtibia 50.2895
rfoot -16.1095 -9.09289
rtoes -2.42896
lfemur -66.5471 3.10268 -22.1865
ltibia 37.4462
lfoot -3.54528 -19.0538
ltoes -8.43366
322
root 0.588446 17.2729 -2.36906 33.6684 11.3732 0.816667
lowerback 31.3678 4.91616 1.786
upperback 12.6783 7.08157 6.55181
thorax -3.34942 3.3042 3.91466
lowerneck -17.4541 -6.01723 -2.73174
upperneck 15.7365 -6.53669 -4.72228
head 7.65541 -3.7121 -1.86744
rclavicle 7.31528e-014 -1.11319e-014
rhumerus 21.4107 28.164 -53.9044
rradius 37.6254
rwrist -16.1851
rhand -19.0209 10.6655
rfingers 7.12502
rthumb 7.28497 -19.189
lclavicle 7.31528e-014 -1.11319e-014
lhumerus -12.6361 -48.3274 91.3722
lradius 71.7866
lwrist 7.41401
lhand -24.1073 20.3239
lfingers 7.12502
lthumb 2.37369 50.2904
rfemur -60.9705 -14.1395 24.8996
rtibia 49.9792
rfoot -16.0494 -9.25302
rtoes -2.35605
lfemur -65.5994 3.18222 -21.7197
ltibia 37.2577
lfoot -3.60877 -18.7863
ltoes -8.83982
323
root 0.552025 17.2972 -2.36816 32.83 11.328 0.668757
lowerback 31.2813 4.9189 2.07444
upperback 12.2638 7.16145 6.20788
thorax -3.71094 3.35961 3.32405
lowerneck -17.4483 -5.95837 -2.03883
upperneck 16.5364 -6.59793 -4.76408
head 7.88985 -3.70658 -2.01909
rclavicle -7.95139e-014 -7.15625e-014
rhumerus 19.2714 28.4304 -55.678
rradius 38.0529
rwrist -15.9447
rhand -18.7941 10.6399
rfingers 7.12502
rthumb 7.50389 -19.207
lclavicle -7.95139e-014 -7.15625e-014
lhumerus -12.986 -49.0046 91.5229
lradius 70.7048
lwrist 8.00858
lhand -28.5172 18.3193
lfingers 7.12502
lthumb -1.88541 48.2907
rfemur -59.8478 -13.871 24.811
rtibia 49.6838
rfoot -16.0187 -9.47243
rtoes -2.26827
lfemur -64.6043 3.20708 -21.2578
ltibia 37.1284
lfoot -3.73426 -18.481
ltoes -9.56907
324
root 0.509924 17.3111 -2.372 32.0897 11.2666 0.579123
lowerback 31.0971 4.93946 2.23257
upperback 11.8414 7.22466 5.8546
thorax -4.04793 3.40211 2.80965
lowerneck -17.3949 -5.87199 -1.28141
upperneck 17.2598 -6.63705 -4.85193
head 8.08739 -3.68647 -2.19088
rclavicle 6.36111e-015 -7.15625e-014
rhumerus 17.1819 28.4941 -57.5778
rradius 38.4077
rwrist -15.5783
rhand -18.6288 10.9191
rfingers 7.12502
rthumb 7.66348 -18.922
lclavicle 6.36111e-015 -7.15625e-014
lhumerus -13.3668 -49.5478 91.6487
lradius 69.7012
lwrist 8.61678
lhand -23.4277 20.4891
lfingers 7.12502
lthumb 3.0301 50.4473
rfemur -58.8868 -13.5806 24.7016
rtibia 49.4026
rfoot -15.9757 -9.67009
rtoes -1.91353
lfemur -63.7413 3.21398 -20.8308
ltibia 37.044
lfoot -3.8798 -18.1857
ltoes -10.5286
